<svg viewBox="0 0 591 647" fill="none" xmlns="http://www.w3.org/2000/svg">
<g id="girl-2" clip-path="url(#clip0_101_5)">
<path id="Vector" d="M296.807 418.436C327.735 418.436 352.807 412.616 352.807 405.436C352.807 398.256 327.735 392.436 296.807 392.436C265.879 392.436 240.807 398.256 240.807 405.436C240.807 412.616 265.879 418.436 296.807 418.436Z" fill="#3F3D56"/>
<path id="Vector_2" d="M341.734 534.942L287.733 538.935L287.881 540.93L341.881 536.936L341.734 534.942Z" fill="#CACACA"/>
<path id="Vector_3" d="M252.289 528.06L251.325 529.812L271.325 540.812L272.289 539.06L252.289 528.06Z" fill="#CACACA"/>
<path id="Vector_4" d="M308.807 520.936H290.807V522.936H308.807V520.936Z" fill="#CACACA"/>
<path id="Vector_5" d="M243.805 646.004L241.809 645.868L256.809 416.868L258.805 417.004L243.805 646.004Z" fill="#CACACA"/>
<path id="Vector_6" d="M317.808 645.985L307.808 434.985L309.806 434.887L319.806 645.887L317.808 645.985Z" fill="#CACACA"/>
<path id="Vector_7" d="M337.804 415.854L335.811 416.018L354.81 646.018L356.804 645.854L337.804 415.854Z" fill="#CACACA"/>
<path id="Vector_8" d="M274.807 645.96L272.807 645.912L278.807 434.912L280.807 434.96L274.807 645.96Z" fill="#CACACA"/>
<path id="Vector_9" d="M265.236 513.691L251.954 521.557L215.29 474.07L234.894 462.459L265.236 513.691Z" fill="#FFB6B6"/>
<path id="Vector_10" d="M276.249 524.559L233.422 549.925L233.101 549.383C230.483 544.962 229.728 539.682 231.002 534.704C232.277 529.727 235.476 525.459 239.897 522.841L239.898 522.84L266.056 507.348L276.249 524.559Z" fill="#2F2E41"/>
<path id="Vector_11" d="M329.378 513.691L342.66 521.557L379.324 474.07L359.721 462.459L329.378 513.691Z" fill="#FFB6B6"/>
<path id="Vector_12" d="M328.559 507.348L354.716 522.84L354.717 522.841C359.138 525.459 362.337 529.727 363.612 534.704C364.886 539.682 364.131 544.962 361.513 549.383L361.192 549.925L318.365 524.559L328.559 507.348Z" fill="#2F2E41"/>
<path id="Vector_13" d="M338.506 332.5C338.506 332.5 295.171 363.023 252.989 335.479L252.329 354.68C252.329 354.68 161.975 393 176.807 422.936C191.639 452.872 222.807 483.936 222.807 483.936L239.807 469.936L220.807 421.936L272.489 400.041L317.544 400.268L380.371 425.697L350.371 470.697L376.807 478.936C376.807 478.936 439.807 420.936 426.307 404.436C415.486 391.211 350.713 361.558 350.713 361.558L338.506 332.5Z" fill="#2F2E41"/>
<path id="Vector_14" d="M324.789 134.16C313.7 115.421 291.759 114.548 291.759 114.548C291.759 114.548 270.38 111.814 256.665 140.353C243.881 166.953 226.239 183.637 253.824 189.864L258.807 174.355L261.893 191.018C265.821 191.301 269.761 191.368 273.696 191.22C303.238 190.266 331.372 191.499 330.466 180.898C329.262 166.806 335.46 152.19 324.789 134.16Z" fill="#2F2E41"/>
<path id="Vector_15" d="M294.307 189.855C310.323 189.855 323.307 176.871 323.307 160.855C323.307 144.839 310.323 131.855 294.307 131.855C278.291 131.855 265.307 144.839 265.307 160.855C265.307 176.871 278.291 189.855 294.307 189.855Z" fill="#FFB8B8"/>
<path id="Vector_16" d="M320.886 131.353L299.21 119.999L269.277 124.644L263.084 151.997L278.5 151.404L282.807 141.355V151.239L289.921 150.965L294.049 134.966L296.63 151.997L321.919 151.481L320.886 131.353Z" fill="#2F2E41"/>
<path id="Vector_17" opacity="0.2" d="M248.989 248L271.489 335.991C271.489 335.991 260.989 259 248.989 248Z" fill="black"/>
<path id="Vector_18" opacity="0.2" d="M316.125 336.991L338.625 249C326.625 260 316.125 336.991 316.125 336.991Z" fill="black"/>
<path id="Vector_19" d="M584 646.936H1C0.734784 646.936 0.480414 646.831 0.292877 646.643C0.105341 646.456 0 646.201 0 645.936C0 645.671 0.105341 645.416 0.292877 645.229C0.480414 645.041 0.734784 644.936 1 644.936H584C584.265 644.936 584.52 645.041 584.707 645.229C584.895 645.416 585 645.671 585 645.936C585 646.201 584.895 646.456 584.707 646.643C584.52 646.831 584.265 646.936 584 646.936Z" fill="#E4E4E4"/>
<path id="Vector_20" d="M269.249 415.861C268.037 415.221 266.98 414.323 266.152 413.23C265.325 412.137 264.747 410.876 264.459 409.536C264.172 408.195 264.182 406.808 264.488 405.472C264.795 404.136 265.39 402.883 266.233 401.802L245.807 345.936L261.443 337.976L279.982 400.518C281.704 402.055 282.803 404.17 283.07 406.462C283.337 408.755 282.753 411.066 281.43 412.957C280.107 414.848 278.137 416.188 275.892 416.723C273.647 417.259 271.283 416.952 269.249 415.861Z" fill="#FFB6B6"/>
<path id="Vector_21" d="M321.365 413.861C322.577 413.221 323.634 412.323 324.462 411.23C325.289 410.137 325.867 408.876 326.155 407.536C326.442 406.195 326.433 404.808 326.126 403.472C325.819 402.136 325.224 400.883 324.381 399.802L344.807 343.936L329.172 335.976L310.632 398.518C308.91 400.055 307.811 402.17 307.544 404.462C307.277 406.755 307.861 409.066 309.184 410.957C310.507 412.848 312.477 414.188 314.722 414.723C316.968 415.259 319.331 414.952 321.365 413.861Z" fill="#FFB6B6"/>
<g id="shirt">
<path id="Vector_22" d="M249.512 244.503L260.907 294.054L272.302 343.605C272.522 344.629 272.331 345.698 271.771 346.583C271.211 347.468 270.326 348.098 269.307 348.338L247.359 351.5C246.819 351.627 246.259 351.64 245.713 351.539C245.168 351.438 244.649 351.224 244.191 350.912C243.732 350.599 243.344 350.195 243.05 349.724C242.756 349.253 242.564 348.727 242.485 348.178L233.807 244.936L249.512 244.503Z" fill="url(#paint0_linear_101_5)"/>
<path id="Vector_23" d="M341.102 242.503L318.312 341.605C318.092 342.629 318.283 343.698 318.843 344.583C319.403 345.468 320.288 346.098 321.307 346.338L343.255 349.5C343.795 349.627 344.355 349.64 344.901 349.539C345.446 349.438 345.965 349.224 346.423 348.912C346.882 348.599 347.27 348.195 347.564 347.724C347.858 347.253 348.05 346.727 348.13 346.178L354.807 242.936L341.102 242.503Z" fill="url(#paint1_linear_101_5)"/>
<path id="Vector_24" d="M353.587 220.528L316.078 208.094L306.807 194.936H279.807L271.808 208.302L237.027 220.528C235.131 221.069 233.502 222.293 232.452 223.963C231.403 225.632 231.007 227.631 231.341 229.575L246.807 356.936L271.807 354.936C271.807 354.936 305.489 381.218 325.807 350.936L326.892 335.665L347.807 355.936L359.273 229.575C359.607 227.631 359.211 225.632 358.162 223.963C357.112 222.293 355.483 221.069 353.587 220.528Z" fill="url(#paint2_linear_101_5)"/>
</g>
</g>
<defs>
<linearGradient id="paint0_linear_101_5" x1="253.099" y1="244.503" x2="253.099" y2="351.606" gradientUnits="userSpaceOnUse">
<stop stop-color="#33D9A1"/>
<stop offset="1" stop-color="#38A4D3"/>
</linearGradient>
<linearGradient id="paint1_linear_101_5" x1="336.515" y1="242.503" x2="336.515" y2="349.606" gradientUnits="userSpaceOnUse">
<stop stop-color="#33D9A1"/>
<stop offset="1" stop-color="#38A4D3"/>
</linearGradient>
<linearGradient id="paint2_linear_101_5" x1="295.307" y1="194.936" x2="295.307" y2="365.516" gradientUnits="userSpaceOnUse">
<stop stop-color="#33D9A1"/>
<stop offset="1" stop-color="#38A4D3"/>
</linearGradient>
<clipPath id="clip0_101_5">
<rect width="590.819" height="646.936" fill="white"/>
</clipPath>
</defs>
</svg>
