<svg width="35" height="36" viewBox="0 0 96 57" fill="none" xmlns="http://www.w3.org/2000/svg">
<path d="M96 6.73458C92.468 7.87792 88.672 8.64792 84.688 8.995C88.756 7.21875 91.88 4.40417 93.348 1.05C89.544 2.695 85.328 3.89083 80.84 4.53542C77.252 1.74417 72.128 0 66.464 0C53.748 0 44.404 8.65083 47.276 17.6313C30.912 17.0333 16.4 11.3167 6.684 2.62792C1.524 9.0825 4.008 17.5262 12.776 21.8021C9.552 21.7262 6.512 21.0817 3.86 20.0054C3.644 26.6583 10.184 32.8825 19.656 34.2679C16.884 34.8162 13.848 34.9446 10.76 34.5129C13.264 40.2179 20.536 44.3683 29.16 44.485C20.88 49.2188 10.448 51.3333 0 50.435C8.716 54.5096 19.072 56.8867 30.192 56.8867C66.76 56.8867 87.42 34.3671 86.172 14.1692C90.02 12.1421 93.36 9.61333 96 6.73458Z" fill="white"/>
</svg>
